<mxfile host="app.diagrams.net" modified="2022-02-08T10:00:28.945Z" agent="5.0 (Windows NT 10.0; Win64; x64) AppleWebKit/537.36 (KHTML, like Gecko) Chrome/98.0.4758.81 Safari/537.36" etag="qM301bWQ8dOgvUz8jGOV" version="16.5.3" type="github">
  <diagram id="yptb5B2aofKZQN_C4duo" name="Page-1">
    <mxGraphModel dx="2062" dy="1044" grid="1" gridSize="10" guides="1" tooltips="1" connect="1" arrows="1" fold="1" page="1" pageScale="1" pageWidth="827" pageHeight="1169" math="0" shadow="0">
      <root>
        <mxCell id="0" />
        <mxCell id="1" parent="0" />
        <mxCell id="2JBbDmmwrZ8TRhYNZVzx-1" value="N4 Billing (services performed, contracts)" style="shape=parallelogram;perimeter=parallelogramPerimeter;whiteSpace=wrap;html=1;fixedSize=1;" parent="1" vertex="1">
          <mxGeometry x="70" y="110" width="140" height="90" as="geometry" />
        </mxCell>
        <mxCell id="2JBbDmmwrZ8TRhYNZVzx-2" value="N4 Billing DB&lt;br&gt;(Raw Invoice Data)" style="shape=cylinder3;whiteSpace=wrap;html=1;boundedLbl=1;backgroundOutline=1;size=15;" parent="1" vertex="1">
          <mxGeometry x="80" y="320" width="100" height="120" as="geometry" />
        </mxCell>
        <mxCell id="2JBbDmmwrZ8TRhYNZVzx-3" value="" style="endArrow=classic;html=1;rounded=0;exitX=0.442;exitY=1;exitDx=0;exitDy=0;exitPerimeter=0;entryX=0.5;entryY=0;entryDx=0;entryDy=0;entryPerimeter=0;startArrow=classic;startFill=1;strokeWidth=1;" parent="1" source="2JBbDmmwrZ8TRhYNZVzx-1" target="2JBbDmmwrZ8TRhYNZVzx-2" edge="1">
          <mxGeometry relative="1" as="geometry">
            <mxPoint x="370" y="520" as="sourcePoint" />
            <mxPoint x="110" y="300" as="targetPoint" />
          </mxGeometry>
        </mxCell>
        <mxCell id="2JBbDmmwrZ8TRhYNZVzx-7" value="N2S&lt;br&gt;(process data and apply bussiness rules, generates invoice, sign electronically and sends to client by email)" style="shape=parallelogram;perimeter=parallelogramPerimeter;whiteSpace=wrap;html=1;fixedSize=1;" parent="1" vertex="1">
          <mxGeometry x="310" y="230" width="180" height="170" as="geometry" />
        </mxCell>
        <mxCell id="2JBbDmmwrZ8TRhYNZVzx-8" value="Invoice data" style="endArrow=classic;html=1;rounded=0;strokeWidth=1;exitX=1;exitY=0.5;exitDx=0;exitDy=0;exitPerimeter=0;entryX=0.067;entryY=0.423;entryDx=0;entryDy=0;entryPerimeter=0;" parent="1" source="2JBbDmmwrZ8TRhYNZVzx-2" target="2JBbDmmwrZ8TRhYNZVzx-7" edge="1">
          <mxGeometry relative="1" as="geometry">
            <mxPoint x="370" y="520" as="sourcePoint" />
            <mxPoint x="470" y="520" as="targetPoint" />
            <Array as="points" />
          </mxGeometry>
        </mxCell>
        <mxCell id="2JBbDmmwrZ8TRhYNZVzx-10" value="Oracle Fusion" style="whiteSpace=wrap;html=1;shape=mxgraph.basic.cloud_callout" parent="1" vertex="1">
          <mxGeometry x="650" y="250" width="170" height="130" as="geometry" />
        </mxCell>
        <mxCell id="2JBbDmmwrZ8TRhYNZVzx-11" value="MFT" style="endArrow=classic;html=1;rounded=0;strokeWidth=1;entryX=0.008;entryY=0.49;entryDx=0;entryDy=0;entryPerimeter=0;startArrow=classic;startFill=1;" parent="1" source="2JBbDmmwrZ8TRhYNZVzx-7" target="2JBbDmmwrZ8TRhYNZVzx-10" edge="1">
          <mxGeometry relative="1" as="geometry">
            <mxPoint x="500" y="305" as="sourcePoint" />
            <mxPoint x="470" y="470" as="targetPoint" />
            <Array as="points">
              <mxPoint x="570" y="314" />
            </Array>
          </mxGeometry>
        </mxCell>
      </root>
    </mxGraphModel>
  </diagram>
</mxfile>
